<svg id="图层_2" data-name="图层 2" xmlns="http://www.w3.org/2000/svg" viewBox="0 0 800.64 560.23" style=""><defs><style>.cls-1,.cls-2,.cls-3,.cls-4,.cls-5,.cls-6,.cls-7{fill:none;stroke-miterlimit:10;stroke-width:1.5px;}.cls-1{stroke:#040000;}.cls-2{stroke:#231815;}.cls-3{stroke:#ded128;}.cls-4{stroke:#265aa8;}.cls-5{stroke:#111907;}.cls-6{stroke:#343033;}.cls-7{stroke:#655146;}</style></defs><path class="cls-1 xlwPYQRQ_0" d="M204.09,459.05c9.57.14,18.64-3.86,27.52-7.43,11.42-4.59,23-8.58,34.8-12.07,45.07-13.38,92.33-19.46,139.23-24.35a9.11,9.11,0,0,1,4.44.28c1.65.69,2.73,2.28,3.68,3.81q2.42,3.88,4.51,7.93c.07.12.14.25.2.38,11.36,21.85,16.55,46.6,21,70.94q4,22,7.54,44.18c.17,1.08.34,2.16.5,3.24q2.46,15.76,4.63,31.59,1.2,8.81,2.31,17.62l.06.42s0,.06,0,.08c.21,1.66.42,3.33.62,5L454,597.4" transform="translate(-24.76 -27.22)"></path><path class="cls-1 xlwPYQRQ_1" d="M265.14,439.38l1.27.17,12.18,1.65a7.14,7.14,0,0,1,3.13.93,6.66,6.66,0,0,1,2,2.76c3,6.23,4.67,13,6.14,19.74,1.72,7.86,3.15,15.77,4.59,23.69Q302.74,534,311,579.69c.82,4.56,1.65,9.13,2.24,13.72.06.44.11.88.16,1.31q.27,2.26.45,4.53" transform="translate(-24.76 -27.22)"></path><path class="cls-2 xlwPYQRQ_2" d="M235.94,168.74l.06.14a12,12,0,0,0,1,1.88,10.4,10.4,0,0,0,6.23,4.19,29.41,29.41,0,0,0,7.8.87,41.42,41.42,0,0,0,14.39-2.06c-1.06,8.73-2,18.28,2.81,25.67a14.49,14.49,0,0,1,2.05,3.6c1.25,4.11-2.62,8.57-1.17,12.62.34,1,1,1.8,1.33,2.75,1.14,2.89-.19,6.1-.8,9.15-1.62,8,1.87,16.14,5,23.73.95,2.32,1.78,5.25.08,7.09a6.38,6.38,0,0,1-2.17,1.38l-1,.45a172.26,172.26,0,0,1-22.87,8.45c-2.59.76-5.28,1.49-7.35,3.22-2.9,2.43-4.05,6.45-3.88,10.22s1.48,7.39,2.78,10.94a2.89,2.89,0,0,0-.69-2.11" transform="translate(-24.76 -27.22)"></path><path class="cls-2 xlwPYQRQ_3" d="M236,154.42c0,.16-.07.32-.11.49a36.18,36.18,0,0,0-1,7.67,16.32,16.32,0,0,0,1.06,6.15" transform="translate(-24.76 -27.22)"></path><path class="cls-2 xlwPYQRQ_4" d="M255.29,227.11l.33-.36a71.12,71.12,0,0,0,7.91-10.38,8.66,8.66,0,0,0-1.34,4.56,5.49,5.49,0,0,1-.24,2.29,3.92,3.92,0,0,1-1.65,1.52,34,34,0,0,1-3.33,1.75l-1.11.48a1.43,1.43,0,0,0,1.11-.48,1.36,1.36,0,0,0,.26-.41" transform="translate(-24.76 -27.22)"></path><path class="cls-2 xlwPYQRQ_5" d="M177.09,197.35a5,5,0,0,1-.42-3.33,9.73,9.73,0,0,1,3.49-4.93l.78-.64a84.72,84.72,0,0,1,14.79-9.51,62.86,62.86,0,0,1,29.8-7.08,58.6,58.6,0,0,0-15-1.29,40.7,40.7,0,0,1,7.53-3.61,46.75,46.75,0,0,0-10.4,1.21,3.54,3.54,0,0,0,2.12-5,64.46,64.46,0,0,1-16.2,10.28l1.47-3.87.36-1" transform="translate(-24.76 -27.22)"></path><path class="cls-2 xlwPYQRQ_6" d="M177.09,197.35a10.23,10.23,0,0,1,2.78,2.11A3.52,3.52,0,0,1,177.09,197.35Z" transform="translate(-24.76 -27.22)"></path><path class="cls-2 xlwPYQRQ_7" d="M169.23,196.33a10.65,10.65,0,0,1,1.6-.24,11.68,11.68,0,0,1,6.26,1.26" transform="translate(-24.76 -27.22)"></path><path class="cls-2 xlwPYQRQ_8" d="M169.23,196.33a10.45,10.45,0,0,1-3.06,1.23A10,10,0,0,1,169.23,196.33Z" transform="translate(-24.76 -27.22)"></path><path class="cls-2 xlwPYQRQ_9" d="M195.59,169l-.54.59q-10,10.81-20,21.65a38,38,0,0,1-4,3.85l-.47.36a14.39,14.39,0,0,1-1.35.9" transform="translate(-24.76 -27.22)"></path><path class="cls-2 xlwPYQRQ_10" d="M201.87,185.48l.11.11c2.49,2.81,5,5.88,5.4,9.6a4.43,4.43,0,0,1-.86,3.44,4.91,4.91,0,0,1-1.92,1.16,19.07,19.07,0,0,1-14-.13l-.46-.19a19.14,19.14,0,0,1-10-10.38.36.36,0,0,1,0-.09" transform="translate(-24.76 -27.22)"></path><path class="cls-2 xlwPYQRQ_11" d="M201.86,185.46a.34.34,0,0,0-.17-.19Z" transform="translate(-24.76 -27.22)"></path><path class="cls-2 xlwPYQRQ_12" d="M201.86,185.46v0" transform="translate(-24.76 -27.22)"></path><path class="cls-2 xlwPYQRQ_13" d="M200.33,187l.3-.14a7.15,7.15,0,0,0,.72-.42,1.1,1.1,0,0,0,.52-.91" transform="translate(-24.76 -27.22)"></path><path class="cls-2 xlwPYQRQ_14" d="M195.75,179a5,5,0,0,1,2.12,1.61,5.35,5.35,0,0,1,.49.78,2,2,0,0,0-1.57,1.34,4.15,4.15,0,0,0-.13,2.13,3,3,0,0,0,1,2.06,2.62,2.62,0,0,0,2.68,0" transform="translate(-24.76 -27.22)"></path><path class="cls-2 xlwPYQRQ_15" d="M257.71,146.61a92.47,92.47,0,0,0-22.84-28.45c-.4-.33-.81-.67-1.22-1a90,90,0,0,0-17.79-11.23,5.1,5.1,0,0,0-1.35-.61c-.5-.07-1.1.27-1,.77s1.05.39.87-.07" transform="translate(-24.76 -27.22)"></path><path class="cls-2 xlwPYQRQ_16" d="M257.71,146.61a11.76,11.76,0,0,1,2.66,5.67Q259.14,149.4,257.71,146.61Z" transform="translate(-24.76 -27.22)"></path><path class="cls-2 xlwPYQRQ_17" d="M177.35,130l.81,1.52a91.1,91.1,0,0,0,10.06,15.14c.45.54.91,1.08,1.38,1.61a61.11,61.11,0,0,0,6.53,6.34A47.86,47.86,0,0,0,210,162.63a38.07,38.07,0,0,0,5.6,1.62,35.11,35.11,0,0,0,9.15.77c-4.26-.06-8.12-2.47-11.49-5.08a72.64,72.64,0,0,1-14.81-15.51q-1.56-2.18-2.93-4.46c-.51-.82-1-1.65-1.45-2.49,5.45,5.22,11.09,10.33,17.58,14.16a42.08,42.08,0,0,0,16.08,5.77c.75.09,1.49.16,2.24.2a30.66,30.66,0,0,0,3.18,0l-6.83-8.72a39.14,39.14,0,0,1,10.16,4.82,40.56,40.56,0,0,1,13.36,14.61c.46.84.88,1.7,1.27,2.58a41,41,0,0,0-6.44-31.85,39.75,39.75,0,0,1,9.78,4.53,16.52,16.52,0,0,1,3.28,3" transform="translate(-24.76 -27.22)"></path><path class="cls-2 xlwPYQRQ_18" d="M177.88,129.19c.1.76.19,1.53.28,2.29a141.27,141.27,0,0,1,.77,22.05c0,.41,0,.81-.07,1.22a141.74,141.74,0,0,1-7.93,40.18l-1.17-2.3" transform="translate(-24.76 -27.22)"></path><path class="cls-2 xlwPYQRQ_19" d="M152.57,127.32q1.44,9.8,3.52,19.45a330.78,330.78,0,0,0,14.49,48.66c.08.22.16.44.25.66,11.25,29.38,26.38,57.39,44,83.53l2.11,3.12c2.7,3.95,5.53,7.91,8.62,11.62a72.35,72.35,0,0,0,7.6,7.94A44.9,44.9,0,0,0,244.93,310,67.67,67.67,0,0,1,216,296.44l-.67-.55a67.43,67.43,0,0,1-9.68-9.8q2.81,5.39,6,10.52a156.66,156.66,0,0,0,13.25,18.1,153.77,153.77,0,0,0,20.68,20.22l.43.35c-.12-.13-.24-.25-.35-.38-.61-.64-1.21-1.29-1.8-1.93" transform="translate(-24.76 -27.22)"></path><path class="cls-2 xlwPYQRQ_20" d="M150.93,259.65a207.69,207.69,0,0,0,43,66.29c6.32,6.54,13.44,12.86,22.1,15.43.48.15,1,.28,1.45.4a5,5,0,0,1-2-.32,5.48,5.48,0,0,1-.8-.41" transform="translate(-24.76 -27.22)"></path><path class="cls-2 xlwPYQRQ_21" d="M171,296.41c.66,1.32,1.31,2.64,2,4,7,14.21,13.9,28.56,19.74,43.27,1.66,4.18,3.24,8.39,4.71,12.63.56,1.62,1.11,3.24,1.64,4.88q2.29,7.05,4.17,14.24a176,176,0,0,1,5.9,45.17,127.19,127.19,0,0,1-5.88,38.27c-.08.29-.18.57-.27.85-.15.46-.23,1.11.21,1.3s.37-.9.08-.51" transform="translate(-24.76 -27.22)"></path><path class="cls-2 xlwPYQRQ_22" d="M158,291.12c.19.14.37.29.55.45,4.46,3.69,7.28,9,9.91,14.19,10.87,21.36,21,43.27,27.25,66.41s8.49,47.72,3.49,71.17l-1.08-2.78" transform="translate(-24.76 -27.22)"></path><path class="cls-2 xlwPYQRQ_23" d="M158.17,290.47c.12.37.25.73.37,1.1q8.53,25.2,15.24,51c1.81,7,3.52,13.91,5.22,20.88q9.45,38.59,18.91,77.2c.19.76.37,1.51.56,2.27" transform="translate(-24.76 -27.22)"></path><path class="cls-2 xlwPYQRQ_24" d="M214.45,90.57a85.12,85.12,0,0,1,20.67,27.62,1.07,1.07,0,0,1-.25,0,1.62,1.62,0,0,1-1.22-1,1,1,0,0,1-.12-.39" transform="translate(-24.76 -27.22)"></path><path class="cls-2 xlwPYQRQ_25" d="M252,120.7c-9.43-3.4-18.38-8-24-16-.14-.19-.28-.39-.41-.59" transform="translate(-24.76 -27.22)"></path><path class="cls-2 xlwPYQRQ_26" d="M252.05,120.71A35.12,35.12,0,0,0,262.11,124C258.78,123,255.39,121.92,252.05,120.71Z" transform="translate(-24.76 -27.22)"></path><path class="cls-2 xlwPYQRQ_27" d="M252.05,120.71h0" transform="translate(-24.76 -27.22)"></path><path class="cls-2 xlwPYQRQ_28" d="M165.05,78.38a19.85,19.85,0,0,1,3.18-1.7c5.48-2.37,11.88-2.5,17.87-1.63a60.12,60.12,0,0,1,27.26,11.34c1.64,1.23,3.2,2.53,4.72,3.9,6.22,5.58,11.61,12.11,17.55,18,4.85,4.83,10.3,9.37,16.39,12.38" transform="translate(-24.76 -27.22)"></path><path class="cls-2 xlwPYQRQ_29" d="M97.62,96.34a146.25,146.25,0,0,1,47.62-17.93l.61-.11c1.79-.32,3.59-.62,5.4-.87A141,141,0,0,1,168.42,76l-.42.12h0l-.75.22" transform="translate(-24.76 -27.22)"></path><path class="cls-2 xlwPYQRQ_30" d="M110.56,88.81A103.77,103.77,0,0,0,136,57.55a103.08,103.08,0,0,0,4.42-9.47,76.22,76.22,0,0,1,3.31,9.34c.07.26.13.53.19.79.51,2.15.85,4.34,1.19,6.52a63.58,63.58,0,0,1,1.12,12.75,1.35,1.35,0,0,1-.37.82c-.21.23-.45.33-.61.11a.1.1,0,0,1,0,0" transform="translate(-24.76 -27.22)"></path><path class="cls-2 xlwPYQRQ_31" d="M144.07,58.17a18.28,18.28,0,0,1,2.18,1.17,1.56,1.56,0,0,1,.37.31,1.24,1.24,0,0,1,.16.74,14,14,0,0,0,.13,2.51,3.21,3.21,0,0,0,1.26,2.1,1.46,1.46,0,0,1,.5.42,1.07,1.07,0,0,1,.05.64c-.15,1.14-.29,2.27-.44,3.41a3.24,3.24,0,0,0,0,.93c.15.86.94,1.41,1.6,2a1,1,0,0,1,.36.47c.11.48-.49,1-.21,1.41a1.09,1.09,0,0,0,.43.29,1.76,1.76,0,0,1,.8,1.23,4.72,4.72,0,0,1,0,1.3c0,.07,0,.14,0,.21h0c.1,0,.11-.19,0-.21h0" transform="translate(-24.76 -27.22)"></path><path class="cls-2 xlwPYQRQ_32" d="M64.07,58.52l.38-.08L71.08,57l1.38,10a19.74,19.74,0,0,0,5.32-3.67,40.68,40.68,0,0,1,.81,14,35.35,35.35,0,0,0,3.74-4A36.35,36.35,0,0,0,85.39,69a40.46,40.46,0,0,1,0,18.54l4-3.35a28,28,0,0,1-1.24,11.46,66.75,66.75,0,0,1,9.1-1.43A18.25,18.25,0,0,1,96.68,96a16.23,16.23,0,0,1-4.85,6.33,10.78,10.78,0,0,1,5.22.49,13.93,13.93,0,0,0-3.34,2.72,8.11,8.11,0,0,1,5.63,4.81,8.86,8.86,0,0,1-10.48,2.89,18.47,18.47,0,0,1,3.57,5.26,1.43,1.43,0,0,1,.12,1.31,1.4,1.4,0,0,1-.94.51,11.81,11.81,0,0,1-4.81,0,4.6,4.6,0,0,1-.31,6.9,4.26,4.26,0,0,1-6.3-2.39,6.92,6.92,0,0,1-3.57,4.74c-1.88.8-4.49,0-5-2a8.79,8.79,0,0,1-4.5,4.65c-2.07.77-4.79,0-5.68-2a8.28,8.28,0,0,0,6-4.39l-7.16-6.06a10.76,10.76,0,0,0,4.8-2.77,13.69,13.69,0,0,0-3.33-1.78C67,101.73,67,86.83,65.84,72.42c-.39-4.66-.9-9.32-1.39-14-1-9.74-2-19.48-1.61-29.25l-.5.52-.35.36" transform="translate(-24.76 -27.22)"></path><path class="cls-2 xlwPYQRQ_33" d="M62.68,28.81l.27.27a35.41,35.41,0,0,1,9.46,17,12.38,12.38,0,0,1,3.07-3.46A39.64,39.64,0,0,1,77.07,57a1.52,1.52,0,0,0,.21,1.13c.45.53,1.31.22,2,.35,1,.2,1.47,1.33,1.74,2.32a37.23,37.23,0,0,1,1.18,12.48" transform="translate(-24.76 -27.22)"></path><path class="cls-2 xlwPYQRQ_34" d="M62.34,29.45v.26C62.18,81,29.91,127.36,25.94,178.47,21.55,234.8,51.7,287.55,62.44,343c1.09,5.61,2,11.24,2.68,16.88C73,422.71,58.31,486.77,48.86,549.8a8.36,8.36,0,0,0-.09,1.74,2.41,2.41,0,0,0,1.34,2.31c1.44.54,1.74-2.8.45-2" transform="translate(-24.76 -27.22)"></path><path class="cls-2 xlwPYQRQ_35" d="M182,177.54a43.23,43.23,0,0,1,19.07-16.42l-1.07.32" transform="translate(-24.76 -27.22)"></path><path class="cls-2 xlwPYQRQ_36" d="M164.23,171.65q.45-.87,1-1.71a44.45,44.45,0,0,1,5-6.89,77.15,77.15,0,0,1,8.65-8.3c.79-.66,1.59-1.32,2.4-2a23.26,23.26,0,0,1,5.31-3.45c1-.42,2-.71,3-1.11a9.94,9.94,0,0,0,1.27-.62c.21-.13.44-.32.41-.56a.44.44,0,0,0-.06-.16.89.89,0,0,0-.45-.28,4.43,4.43,0,0,0-2.55,0,12,12,0,0,0-4.24,2.47q-2.59,2.15-5,4.44a106.45,106.45,0,0,0-8.65,9.12c-1.19,1.4-2.33,2.83-3.44,4.29" transform="translate(-24.76 -27.22)"></path><path class="cls-2 xlwPYQRQ_37" d="M204,459.08c6.77,22,13.57,44.16,23.21,65.1,8.42,18.3,19.11,35.77,33,50.27q3,3.15,6.25,6.11a1.88,1.88,0,0,1-.68.51,2.05,2.05,0,0,1-2.12-.23" transform="translate(-24.76 -27.22)"></path><path class="cls-2 xlwPYQRQ_38" d="M194,477.62l4.23,11.11,1.38,3.62c7.68,20.17,15.47,40.55,27.63,58.38s29.3,33.14,50.11,38.86a49.07,49.07,0,0,1-11.52-8.52,47.62,47.62,0,0,1-5.57-6.62c-.58-.82-1.13-1.66-1.65-2.51" transform="translate(-24.76 -27.22)"></path><path class="cls-2 xlwPYQRQ_39" d="M194.58,477q2.07,5.76,3.64,11.69A143.25,143.25,0,0,1,203,520.48c.22,6.31,0,12.75-2.06,18.72s-6.23,11.45-12.06,13.87c7.41-14.26,7.28-31.37,3.89-47.07s-9.78-30.59-14.48-45.95c-6.22,31.12-2.25,64,10.35,93.12a154,154,0,0,0,27.12,42.25L211.84,593" transform="translate(-24.76 -27.22)"></path><path class="cls-2 xlwPYQRQ_40" d="M164.91,520.86c10.45,27.28,21.59,55.61,43.19,75.28l.34.31a2.7,2.7,0,0,1,1.05,2c-.06.92-1.6,1.48-1.9.59" transform="translate(-24.76 -27.22)"></path><path class="cls-2 xlwPYQRQ_41" d="M164.78,520.27c0,.19,0,.38-.07.57q-4.36,37.33-7.22,74.83l-.09,1.09a.83.83,0,0,1-.35,0,1.05,1.05,0,0,1-.87-1.18" transform="translate(-24.76 -27.22)"></path><path class="cls-2 xlwPYQRQ_42" d="M148.17,596.6c0-.2,0-.39,0-.59q-1.44-20.82-1.74-41.72c-.88,12.05-4.6,23.69-8.29,35.19-.95,2.94-1.89,5.87-2.83,8.81-.07.19-.13.39-.19.58,0-.2.1-.39.14-.59.23-.91.45-1.82.67-2.72" transform="translate(-24.76 -27.22)"></path><path class="cls-2 xlwPYQRQ_43" d="M211.66,296.61h0a15.39,15.39,0,0,1,3.67-.72c.4,0,.8-.05,1.2-.05l-.53.6-.16.18" transform="translate(-24.76 -27.22)"></path><path class="cls-2 xlwPYQRQ_44" d="M225.21,294.39l.33,0q7.32-.78,14.68-1.22,4.17-.25,8.34-.39a326.36,326.36,0,0,1,33.83.54,64,64,0,0,1,.08,7.46,65,65,0,0,1-2.37,14.66c-.14.49-.28,1-.43,1.47-.22-.54-.43-1.07-.66-1.6-.08-.2-.16-.41-.25-.61" transform="translate(-24.76 -27.22)"></path><path class="cls-2 xlwPYQRQ_45" d="M225.57,314.15A264.44,264.44,0,0,1,279,315.28l1.09.13q3.18.4,6.34.88h.09a4.05,4.05,0,0,1,1.63.52,4.22,4.22,0,0,1,1.34,2l2.52,5.89a2.24,2.24,0,0,1,.16.52.63.63,0,0,1-.17.59c-.23.19-.54-.15-.52-.35a.14.14,0,0,1,.16-.12" transform="translate(-24.76 -27.22)"></path><path class="cls-2 xlwPYQRQ_46" d="M193.17,343.45a216.21,216.21,0,0,0,22.31-2l.55-.08a216.44,216.44,0,0,0,29.57-6.44l.08,0c6.58-1.93,13.08-4.18,19.45-6.73.52,3.11,3.87,5.11,7,5.17a13.17,13.17,0,0,0,4.72-.88,34.17,34.17,0,0,0,4.21-1.95,90.86,90.86,0,0,1,10.41-5.07l.69-.24a24.76,24.76,0,0,1,4.73-1.16,23.66,23.66,0,0,1,3.84-.2c7.17.24,14.14,3.64,20.64,7l.28.15q4.05,2.08,8.1,4.21c5,2.6,9.93,5.22,14.87,7.9q2.64,1.39,5.26,2.85c1.48.8,3,1.6,4.43,2.43,16.34,9,32.43,18.45,48,28.63q4,2.61,8,5.29,8.22,5.56,16.24,11.43l.5.36c2.54,1.87,5.21,4,6.21,7a8.17,8.17,0,0,1,.42,2.44,10.48,10.48,0,0,1-.05,1.68,15.87,15.87,0,0,1-.38,2.15c-.13.53-.28,1.05-.44,1.57a34.65,34.65,0,0,1-13.95,18.44,3.62,3.62,0,0,1-.41.27l-.4.26" transform="translate(-24.76 -27.22)"></path><path class="cls-2 xlwPYQRQ_47" d="M286.6,315.77a24.27,24.27,0,0,1,23.63-12.2q-.74.46-1.41,1a21.38,21.38,0,0,0-8.07,19.19" transform="translate(-24.76 -27.22)"></path><path class="cls-2 xlwPYQRQ_48" d="M308.92,304.69l14.77-2a33.28,33.28,0,0,1,8.5-.37,13.32,13.32,0,0,1,3.22.8,18.4,18.4,0,0,1,5.17,3.38,44.14,44.14,0,0,1,14,41.11,1.72,1.72,0,0,1-.29.74.68.68,0,0,1-.21.17c-.32.16-.81-.22-.6-.51" transform="translate(-24.76 -27.22)"></path><path class="cls-2 xlwPYQRQ_49" d="M332.64,302.16l-.45.19c-4.92,2-8.3,6.88-9.75,12s-1.21,10.62-.69,15.94c0,.15,0,.31,0,.46a1.41,1.41,0,0,1,0-.46,1.57,1.57,0,0,1,.35-.93" transform="translate(-24.76 -27.22)"></path><path class="cls-2 xlwPYQRQ_50" d="M345.35,258.13l18.09,72c1.09,4.36,2.44,9.07,5.14,12.51a13,13,0,0,0,3.85,3.36c4.45,2.49,9.93,1.8,14.94.86q8.28-1.58,16.41-3.79c.39-.11.87-.34.83-.74s-.85-.06-.5.13" transform="translate(-24.76 -27.22)"></path><path class="cls-2 xlwPYQRQ_51" d="M369,342.44c2.13-3.83,6.92-5.12,11.21-6.05,7.79-1.69,15.63-3.38,23.59-3.85l-1,.49" transform="translate(-24.76 -27.22)"></path><path class="cls-2 xlwPYQRQ_52" d="M344.87,256.94a143.65,143.65,0,0,1,71.87-15,15.75,15.75,0,0,1,1.87,4.77,21.78,21.78,0,0,1-.48,10.6c-.08.28-.16.55-.25.83-1.53,4.76-4.26,9.05-7.13,13.15a38.85,38.85,0,0,1-6.76,7.86,22,22,0,0,1-16.1,4.63h-.05a21.29,21.29,0,0,1-12.21-5.26l0,0" transform="translate(-24.76 -27.22)"></path><path class="cls-2 xlwPYQRQ_53" d="M375.42,269.09c0,.37,0,.74,0,1.11a75.24,75.24,0,0,0,1.41,16.55,75.55,75.55,0,0,0,15.86,33.41,16.89,16.89,0,0,1,1.76,2.39,6.51,6.51,0,0,1,.4.89,5.31,5.31,0,0,1-3.5,6.59c-3.34.89-6.56-1.69-8.84-4.29A61,61,0,0,1,378,320c-6.13-9-9.85-19.66-12.37-30.44-.05-.19-.1-.38-.14-.57-.35-1.51-.67-3-1-4.53q-.37-1.84-.69-3.72a53.13,53.13,0,0,1-.83-8.95,27.44,27.44,0,0,1,1.61-9.54c1.45-3.89,4.81-7.74,8.95-7.34,3.34.33,5.77,3.29,7.49,6.18a15,15,0,0,1,2.2,5.39c0,.24.06.48.07.72a6.47,6.47,0,0,1-.24,2.14,5,5,0,0,1-2.63,3.35c-2,.92-4.84-.31-5.05-2.49" transform="translate(-24.76 -27.22)"></path><path class="cls-2 xlwPYQRQ_54" d="M364,272.33a3.76,3.76,0,0,0-1-.54,4.23,4.23,0,0,0-4,.56,5.16,5.16,0,0,0-1.51,2,5.6,5.6,0,0,0-.3.87,9.53,9.53,0,0,0,1.72,7.81,26.35,26.35,0,0,0,6.64,5.93l.21.15a.51.51,0,0,1-.07.42.57.57,0,0,1-.6.25" transform="translate(-24.76 -27.22)"></path><path class="cls-2 xlwPYQRQ_55" d="M417.36,258.29l.52-.11a22.35,22.35,0,0,1,7.92-.58,9.45,9.45,0,0,1,1.57.38,8.21,8.21,0,0,1,4.07,2.77,6,6,0,0,1,.9,1.65,30.89,30.89,0,0,1,.68,3,9.68,9.68,0,0,0,2.68,4.65c1,1,2.28,1.76,2.88,3,.84,1.73.17,3.78-.52,5.59l0,.09a1.09,1.09,0,0,1-.57-.91.86.86,0,0,1,0-.16" transform="translate(-24.76 -27.22)"></path><path class="cls-2 xlwPYQRQ_56" d="M427.18,258.79c-1.44,2.12-1.1,5,.11,7.3a26.18,26.18,0,0,0,4.95,5.83,58.1,58.1,0,0,1,5.22,6c.21.27.41.54.6.82a37.4,37.4,0,0,1,5.23,9.87l.09.28a27.94,27.94,0,0,1,1.42,9.73,22.31,22.31,0,0,1-2.45,9.58l-.77-1.7,0-.07" transform="translate(-24.76 -27.22)"></path><path class="cls-2 xlwPYQRQ_57" d="M430.19,276.46a134.29,134.29,0,0,1,11.39,30c.31,1.21.59,2.44.86,3.66a10.29,10.29,0,0,1,.35,3.3,9.05,9.05,0,0,1-1.55,3.79,28.14,28.14,0,0,1-3.33,4.21c-.31.31-.62.62-.94.92l-12.21-25.77a22.35,22.35,0,0,1-1.94-5.2c-1.11-5.77,2.56-11.47,7.05-15.27a1.58,1.58,0,0,1,.24.39,2.16,2.16,0,0,1,.12,1.58" transform="translate(-24.76 -27.22)"></path><path class="cls-2 xlwPYQRQ_58" d="M437.92,321.38s0,0,0,.05a11.25,11.25,0,0,0,.87,7.34,27.91,27.91,0,0,0,3.29,5.26c.27.37.55.73.82,1.09a.91.91,0,0,1-.16-.11,1.85,1.85,0,0,1-.66-1l0-.15" transform="translate(-24.76 -27.22)"></path><path class="cls-2 xlwPYQRQ_59" d="M394.6,322.46a17.36,17.36,0,0,1,9.83,9.85,27,27,0,0,1,1.29,5.1c.27,1.6.47,3.21.59,4.82a54.17,54.17,0,0,1,.19,5.55c0,.54,0,1.09,0,1.63" transform="translate(-24.76 -27.22)"></path><path class="cls-2 xlwPYQRQ_60" d="M402.74,376.42c-1.67-8-1.45-16.47,1.52-24.05a31.91,31.91,0,0,1,2.24-4.59,29,29,0,0,1,14.21-12.55c7-2.75,14.67-2.14,21.68.65a40.23,40.23,0,0,1,8.61,4.74l.62.45a43.45,43.45,0,0,1,4.18,3.57c.81.79,1.58,1.61,2.32,2.45,9.17,10.52,13.5,24.3,17.23,37.74a.67.67,0,0,1-.31.19,1.08,1.08,0,0,1-1.4-1" transform="translate(-24.76 -27.22)"></path><path class="cls-2 xlwPYQRQ_61" d="M410.57,381.94c5.9-8.61,16.08-13.86,26.45-14.47a32.29,32.29,0,0,1,13.38,2,56.29,56.29,0,0,1,9.92,5.23l1.3.83c1.4.9,2.79,1.8,4.17,2.73,1.88,1.27,3.75,2.57,5.57,3.93l.62.46q1.56,1.19,3.06,2.4a76,76,0,0,1,7.87,7.35c1.72,1.87,3.43,4.18,3.08,6.7-.22,1.64-1.31,3.05-1.65,4.68-.76,3.57,2.09,6.76,4.37,9.61A42.07,42.07,0,0,1,497,430.61c.92,4.17,1.26,8.63,3.64,12.16,1.33,2,3.2,3.51,4.64,5.4a8.09,8.09,0,0,1,1.88,5.37,5.11,5.11,0,0,1-.29,1.26c-.43,1.15-1.34,2.33-1.76,3.46a3.22,3.22,0,0,0-.22.93,2.1,2.1,0,0,0,.31,1.29" transform="translate(-24.76 -27.22)"></path><path class="cls-2 xlwPYQRQ_62" d="M433.67,407.42c3,1,5.18,3.84,6.17,6.88a30.86,30.86,0,0,1,1,9.5l10.05-.3a2.71,2.71,0,0,1,3,1.58q1.62,2.48,3.25,4.95c.11.18.23.36.35.54a11.31,11.31,0,0,0,2.93,3.4c1.54,1,3.48,1.26,5.28,1.73a18.27,18.27,0,0,1,8.94,5.54,17.89,17.89,0,0,1,1.78,2.37,1.08,1.08,0,0,1-1.27-.79" transform="translate(-24.76 -27.22)"></path><path class="cls-2 xlwPYQRQ_63" d="M457.54,429.78c2.12-1.62,4.65-3.33,7.26-2.72a9,9,0,0,1,2.93,1.51l.1.07c3.06,2.13,6.12,4.26,9.16,6.42l2.7,1.95.24.18c3.46,2.51,6.86,5.08,10.17,7.78,1,.81,2,1.64,3,2.49q4,3.36,7.66,7a31.06,31.06,0,0,1,4.09,4.72c.14.21.28.42.41.64l.28.47a29.93,29.93,0,0,1,2.94,9.53h0l0,.19A126.22,126.22,0,0,1,510,482.58l0,.33a129.88,129.88,0,0,1-4.14,42.6,30.44,30.44,0,0,1-3.27,8.35c-2.81,4.52-7.49,7.48-12,10.26Q484.31,548,478,551.78a16.59,16.59,0,0,1-5,2.27,14.4,14.4,0,0,1-5.73-.26,54.4,54.4,0,0,1-19.27-7.89" transform="translate(-24.76 -27.22)"></path><path class="cls-2 xlwPYQRQ_64" d="M465.4,377.27q.21.48.39,1A22.19,22.19,0,0,1,467,389.75a21.42,21.42,0,0,1-.48,2.25,15.35,15.35,0,0,0-.89,4.25,9.31,9.31,0,0,0,.22,1.73c.08.34.16.68.25,1a55.28,55.28,0,0,0,2.51,8,20.28,20.28,0,0,0,2.92,5c1.86,2.28,4.31,4,6.11,6.36s2.88,5.61,1.49,8.2a12.16,12.16,0,0,1-1.11,1.58,8.1,8.1,0,0,0-1,1.61c-.74,1.65-.38,3.56,0,5.34a.94.94,0,0,1,0,.16,1.69,1.69,0,0,1-1.85-.35" transform="translate(-24.76 -27.22)"></path><path class="cls-2 xlwPYQRQ_65" d="M471.78,382.88a21.34,21.34,0,0,1,2.77,13.75c-.26,1.91-.79,3.84-.44,5.73a12.94,12.94,0,0,0,1.82,4.05l11.82,19.64c.85,1.41,1.73,3,1.5,4.61-.32,2.29-2.73,3.91-2.92,6.22-.22,2.58,2.32,4.39,4.17,6.2a8.6,8.6,0,0,1,2.59,4.38,4.86,4.86,0,0,1,0,1.9" transform="translate(-24.76 -27.22)"></path><path class="cls-2 xlwPYQRQ_66" d="M428.42,418.65c2.56.31,4.09,3,4.95,5.39s1.62,5.18,3.81,6.53,5,.83,7.48.46,5.51-.38,7.16,1.57c1,1.19,1.26,2.82,1.82,4.28a10.28,10.28,0,0,0,9.29,6.44c4,0,7.92-2.26,11.73-2.08a7.69,7.69,0,0,1,2.15.4,3.63,3.63,0,0,0,2.12.37,1.93,1.93,0,0,0,1.19-1.72,3.8,3.8,0,0,0,0-1,17.61,17.61,0,0,1-.22-2.15,2.82,2.82,0,0,1,.19-1l-.43.82-.32.6" transform="translate(-24.76 -27.22)"></path><path class="cls-2 xlwPYQRQ_67" d="M417.45,427.12a7.35,7.35,0,0,1,.82.1l.61.11c5.38,1.2,9,6.8,11.53,11.91.86,1.74,1.91,3.66,3.78,4.19,1.37.38,2.82-.1,4.21-.42a17.86,17.86,0,0,1,12.51,1.8c2.82,1.57,5.41,4,8.21,5.48a10.3,10.3,0,0,0,4.95,1.42c.21,0,.43,0,.64,0,3.6-.28,6.87-3.08,10.44-2.51,4.59.74,6.42,6.28,10,9.24a7.05,7.05,0,0,0,.61.47,10.87,10.87,0,0,0,3.8-13.29" transform="translate(-24.76 -27.22)"></path><path class="cls-2 xlwPYQRQ_68" d="M418.25,246.77l.36,0c3.18-.2,6.54-.28,9.22,1.39,3.44,2.15,4.73,6.68,4.26,10.71a4,4,0,0,1-.65,1.9,1.55,1.55,0,0,1-.74.57" transform="translate(-24.76 -27.22)"></path><path class="cls-2 xlwPYQRQ_69" d="M330.06,334.64a41.15,41.15,0,0,1-.92-12.07c0-.38.06-.76.1-1.14.28-2.78,1-5.8,3.29-7.41,2.64-1.86,6.49-1,8.9,1.15s3.66,5.29,4.66,8.36a82.76,82.76,0,0,1,3.82,19.39,14.61,14.61,0,0,1,0,3,6.06,6.06,0,0,1-.26,1.21,4.83,4.83,0,0,1-.74,1.49" transform="translate(-24.76 -27.22)"></path><path class="cls-2 xlwPYQRQ_70" d="M329.24,322.58a3.71,3.71,0,0,1,4.2-2.28A7.92,7.92,0,0,1,337.8,323c4.66,5.09,6.28,12.23,7,19.09a1.72,1.72,0,0,1-.2,1c-.16.28-.39.44-.66.27" transform="translate(-24.76 -27.22)"></path><path class="cls-3 xlwPYQRQ_71" d="M126.34,115.08c-.38,0-.67-.23-.7-.62" transform="translate(-24.76 -27.22)"></path><path class="cls-3 xlwPYQRQ_72" d="M126.34,115.08a9.72,9.72,0,0,0,11.87,5.4c.88-.32,1.83-.94,1.85-1.88a2.42,2.42,0,0,0-1-1.69,11.22,11.22,0,0,0-11.28-2A3,3,0,0,1,126.34,115.08Z" transform="translate(-24.76 -27.22)"></path><path class="cls-3 xlwPYQRQ_73" d="M126.31,115l0,.07" transform="translate(-24.76 -27.22)"></path><path class="cls-3 xlwPYQRQ_74" d="M248.16,291.84a3.36,3.36,0,0,0,.4.91,4.39,4.39,0,0,0,3.12,2.16,17.77,17.77,0,0,0,4-.35c4.62-.37,8.58,3.08,11.92,6.29l4.81,4.63c2.29,2.19,4.68,4.59,5.34,7.69q2-6,4-11.95a1.72,1.72,0,0,0,.11-.5.64.64,0,0,0-.08-.3c-.13-.25-.59-.25-.62,0" transform="translate(-24.76 -27.22)"></path><path class="cls-3 xlwPYQRQ_75" d="M276.22,332.53l.65-.07,10.46-1.15,7.48-.82c4.72-.51,9.57-1,14.18.13,6.39,1.59,11.74,6.24,18.19,7.55,1.94.39,3.93.47,5.87.85,4.13.8,7.87,2.9,11.49,5.05q2.56,1.51,5.1,3.09a332.13,332.13,0,0,1,32.67,22.94,149.11,149.11,0,0,0,12,9c12.3,7.9,27.84,11.67,36.8,23.23a11.62,11.62,0,0,0-4.69-8.36c-.17-.13-.35-.25-.54-.37" transform="translate(-24.76 -27.22)"></path><path class="cls-3 xlwPYQRQ_76" d="M441.11,392.14l.19.29c2.86,4.25,7.29,7.24,11.94,9.38,1.2.55,2.43,1.06,3.66,1.54,3.65,1.4,7.41,2.54,11.08,3.92-.08.34-.75.2-.68-.15" transform="translate(-24.76 -27.22)"></path><path class="cls-3 xlwPYQRQ_77" d="M446.74,393.2a180.35,180.35,0,0,1,18.56,4.9l-1.05.34" transform="translate(-24.76 -27.22)"></path><path class="cls-3 xlwPYQRQ_78" d="M440.39,392q3.17.54,6.3,1.19" transform="translate(-24.76 -27.22)"></path><path class="cls-3 xlwPYQRQ_79" d="M456.71,403.87c-1.17-.23-2.16,1.12-2,2.32a5.91,5.91,0,0,0,1.72,3.08c6.11,7.06,12.42,14.28,20.71,18.57l-1.18.34" transform="translate(-24.76 -27.22)"></path><path class="cls-3 xlwPYQRQ_80" d="M436.38,368.62a14.52,14.52,0,0,1-7.37,4.22c10.73,8.13,26,8.34,36.54,16.69" transform="translate(-24.76 -27.22)"></path><path class="cls-3 xlwPYQRQ_81" d="M435.23,369l1-.66.84-.58" transform="translate(-24.76 -27.22)"></path><path class="cls-3 xlwPYQRQ_82" d="M468,428.45l-.22.12-3.89,2.09a17,17,0,0,1,10.5,6.11c1.2,1.49,2.34,3.33,4.22,3.71a.71.71,0,0,0,.71-.15.27.27,0,0,0,.05-.15c0-.2-.2-.41-.36-.28" transform="translate(-24.76 -27.22)"></path><path class="cls-3 xlwPYQRQ_83" d="M450.89,340.77a114.78,114.78,0,0,1,9,31.75,2.53,2.53,0,0,0,.57,1.54l.14.11a3.13,3.13,0,0,0,1.19.42c4.13.86,8.28,3.17,9.9,7.07-1.1-13.15-8.25-24.93-15.31-36.07-.2-.32-.4-.64-.62-.95-1.1-1.63-2.4-3.18-4.25-3.69a.75.75,0,0,0,.07.12c.32.61.65,1.22,1,1.83" transform="translate(-24.76 -27.22)"></path><path class="cls-4 xlwPYQRQ_84" d="M109.09,161l.15.43c18.91,53.41,37.9,107.25,46,163.33,5.59,38.94,5.85,78.52,11.46,117.46.26,1.86.54,3.73.83,5.59" transform="translate(-24.76 -27.22)"></path><path class="cls-4 xlwPYQRQ_85" d="M198.31,356A489,489,0,0,0,264,335a136.32,136.32,0,0,1-46,25c3.07,3.05,7.76,4,12,3.45s8.31-2.36,12.24-4.18c7.47-3.45,14.95-7,21.76-11.63,7.81-5.33,14.75-12.11,23.36-16" transform="translate(-24.76 -27.22)"></path><path class="cls-4 xlwPYQRQ_86" d="M135.91,57.47a.2.2,0,0,1,.08.08,1.23,1.23,0,0,1,.13,1c-1.57,7.81-6.76,15.07-5.8,23a.87.87,0,0,0-.84-.58" transform="translate(-24.76 -27.22)"></path><path class="cls-4 xlwPYQRQ_87" d="M425,386.6l.18-.13.15-.1c4.42-3.1,10.25-3.7,15.58-2.73s10.52,3.45,15.49,5.92c3.12,1.55,6.39,3.25,8.26,6.19l-17.87-2.55h-.05l-5.39-.76-3.68-.53a35.27,35.27,0,0,1-7.08-1.51,10.55,10.55,0,0,1-5.41-3.92,4,4,0,0,1-.27-.44l.42.34.84.69" transform="translate(-24.76 -27.22)"></path><path class="cls-4 xlwPYQRQ_88" d="M465.93,451.79a115,115,0,0,0,21.25,57c2.24,3.09,5.24,6.36,9,6.16s6.63-4.05,8.24-7.66a50.89,50.89,0,0,0,4.23-24.65" transform="translate(-24.76 -27.22)"></path><path class="cls-2 xlwPYQRQ_89" d="M175.56,159.74L175.57,159.73"></path><path class="cls-5 xlwPYQRQ_90" d="M190.6,187.89a13.35,13.35,0,0,0,2.75,3.51,4.07,4.07,0,0,0,2.27,1.24,1.31,1.31,0,0,0,1.07-.29,1.46,1.46,0,0,0,.27-1.29,6.86,6.86,0,0,0-2.7-3.89,4.67,4.67,0,0,0-1.58-.95,1.83,1.83,0,0,0-1.75.3,1.16,1.16,0,0,0-.07,1.64Z" transform="translate(-24.76 -27.22)"></path><path class="cls-5 xlwPYQRQ_91" d="M190.55,187.82l0,.07" transform="translate(-24.76 -27.22)"></path><path class="cls-1 xlwPYQRQ_92" d="M207.77,595.43c.39.35.79.7,1.21,1A26.4,26.4,0,0,0,222.29,602l.14,0-1,.17" transform="translate(-24.76 -27.22)"></path><path class="cls-1 xlwPYQRQ_93" d="M222.32,601.77a34.93,34.93,0,0,1-5.58-5.29c-.32-.37-.63-.75-.92-1.14a33,33,0,0,1-2.11-3" transform="translate(-24.76 -27.22)"></path><path class="cls-1 xlwPYQRQ_94" d="M147.83,596l.3,0,4.76.54L157,597l-.66-.11" transform="translate(-24.76 -27.22)"></path><path class="cls-1 xlwPYQRQ_95" d="M48.3,551.15c0,.14,0,.27,0,.41A307.76,307.76,0,0,0,51.76,586a13.44,13.44,0,0,0,1,3.86,9.57,9.57,0,0,0,2.55,3c5.83,4.76,14.08,4.7,21.6,4.52s15-.24,22.55-.19q17.88.12,35.73,1.12h.05l.6,0" transform="translate(-24.76 -27.22)"></path><path class="cls-2 xlwPYQRQ_96" d="M313.82,594.31c.27.09.55.17.83.24,8.4,2.39,17.41.78,26.16.2,5.64-.37,11.3-.3,16.95-.24l96.79,1.16h.14l-.15-.08a7.43,7.43,0,0,1-2.38-2" transform="translate(-24.76 -27.22)"></path><path class="cls-2 xlwPYQRQ_97" d="M158.49,595.75q25,.6,49.95.7H209l7.76,0q48.36,0,96.69-1.76l1.2,0a.69.69,0,0,0,0-.13,1.12,1.12,0,0,0-1.38-1.14h0" transform="translate(-24.76 -27.22)"></path><path class="cls-2 xlwPYQRQ_98" d="M86.41,432.65q.25,1,.48,2c2.62,11.44,2.31,23.4.84,35.06-1.57,12.33-4.42,24.45-6.49,36.71a289,289,0,0,0-3.67,61.76q.17,3.32.4,6.63" transform="translate(-24.76 -27.22)"></path><path class="cls-2 xlwPYQRQ_99" d="M85.87,432.6c.35.67.69,1.35,1,2a96.83,96.83,0,0,1,9.75,47.83c-1.63,29.27-16.47,56.61-19.07,85.7-.15,1.67-.26,3.35-.32,5L77,570" transform="translate(-24.76 -27.22)"></path><path class="cls-2 xlwPYQRQ_100" d="M111.42,431s0,.07,0,.11q2.5,17.19,5,34.41c1.33,9.13,2.67,18.32,2.31,27.55-.31,8.12-1.93,16.12-3.54,24.09Q107.37,556,99.5,594.86" transform="translate(-24.76 -27.22)"></path><path class="cls-2 xlwPYQRQ_101" d="M134.64,475.18c.09.48.19,1,.26,1.44a2.56,2.56,0,0,1,0,.27c2.88,14.77,9.15,28.69,13,43.26,6.38,24.34,5.77,49.89,5.13,75l1.26-2.53" transform="translate(-24.76 -27.22)"></path><path class="cls-2 xlwPYQRQ_102" d="M112.47,431q8.64,42.48,21.37,84a93.25,93.25,0,0,0,1.11-38" transform="translate(-24.76 -27.22)"></path><path class="cls-2 xlwPYQRQ_103" d="M383.23,269.37a57.08,57.08,0,0,0,4.39,14c.07.16.14.32.22.48a.61.61,0,0,0,.05.12.41.41,0,0,0,0-.11.7.7,0,0,0-.27-.49.55.55,0,0,0-.22-.1" transform="translate(-24.76 -27.22)"></path><path class="cls-2 xlwPYQRQ_104" d="M357.16,275.22v0a10.15,10.15,0,0,0,6.33,5.55" transform="translate(-24.76 -27.22)"></path><path class="cls-2 xlwPYQRQ_105" d="M383.09,266.5A14,14,0,0,0,378.6,263c-1.78-.72-4.06-.56-5.3.9-1,1.16-1.11,2.82-1.13,4.35a91,91,0,0,0,.47,10.57c.29,2.85.72,5.69,1.28,8.5a92.37,92.37,0,0,0,11.35,29.51,5,5,0,0,1-7.07,3.07" transform="translate(-24.76 -27.22)"></path><path class="cls-2 xlwPYQRQ_106" d="M275.11,257.55a9.32,9.32,0,0,1-3.62,2.55c-.84.36-1.7.67-2.56,1l-54.12,18.56-1,.33" transform="translate(-24.76 -27.22)"></path><path class="cls-1 xlwPYQRQ_107" d="M522.68,486a111.79,111.79,0,0,1,20.42,39.08,31.74,31.74,0,0,1-9.42,5.7,106.18,106.18,0,0,0-18.47-28.41l-.32-.35" transform="translate(-24.76 -27.22)"></path><path class="cls-1 xlwPYQRQ_108" d="M451.93,577.47l.24.08a32.4,32.4,0,0,1,17.31,12.59c5.3-1.51,9.15-5.94,11-10.75s2-10,1.94-15.13c0-3.17.4-7.09,3.59-8.28a6.14,6.14,0,0,1,5.56,1.06,14.94,14.94,0,0,1,3.6,4.32c5.22,8.36,9.6,17.14,14,25.89a35.36,35.36,0,0,1,3.18,7.88c.07.31.13.63.18.94" transform="translate(-24.76 -27.22)"></path><path class="cls-1 xlwPYQRQ_109" d="M518,526.55s0,.05,0,.08c-4.69,9.16-6.18,20.27-2.52,29.89.9,2.35,2.09,4.59,2.88,7,1.42,4.25,1.57,8.79,2,13.24a94.63,94.63,0,0,0,3.73,18.39c.07.28.16.56.25.84" transform="translate(-24.76 -27.22)"></path><path class="cls-1 xlwPYQRQ_110" d="M533.16,595.46a.75.75,0,0,0-.36-.27" transform="translate(-24.76 -27.22)"></path><path class="cls-1 xlwPYQRQ_111" d="M533.16,595.46c0,.35.05.71.06,1.07A.87.87,0,0,0,533.16,595.46Z" transform="translate(-24.76 -27.22)"></path><path class="cls-1 xlwPYQRQ_112" d="M517,527.22a9.34,9.34,0,0,1,.7-.71c1.17-1,2.74-1.76,3.74-.72a3.2,3.2,0,0,1,.56,2.36c-.25,6.38-1.6,12.71-1.39,19.09.53,16.55,11.37,31.42,12.49,47.89a1.83,1.83,0,0,1,0,.33" transform="translate(-24.76 -27.22)"></path><path class="cls-1 xlwPYQRQ_113" d="M549.91,538.72l.12.3a89.49,89.49,0,0,0,10.27,19.1,47.87,47.87,0,0,1,5.21,8.22,31.53,31.53,0,0,1,2.08,8.25,92.83,92.83,0,0,1,.57,20.54l0,.38c-.06-.13-.12-.25-.17-.38-.42-.91-.84-1.83-1.25-2.75" transform="translate(-24.76 -27.22)"></path><path class="cls-1 xlwPYQRQ_114" d="M550,539.55A.44.44,0,0,1,550,539a.67.67,0,0,1,.58-.25,1.71,1.71,0,0,1,1,.72l20.87,24.72a34.16,34.16,0,0,1,4.37,6,26.2,26.2,0,0,1,2.51,9,55.53,55.53,0,0,1-.32,15.87c-.07.49-.16,1-.25,1.46" transform="translate(-24.76 -27.22)"></path><path class="cls-1 xlwPYQRQ_115" d="M454.79,595.13H846.45" transform="translate(-24.76 -27.22)"></path><path class="cls-1 xlwPYQRQ_116" d="M549.18,477.47c9.14,2.7,17,8.82,23.15,16.08s10.86,15.65,15.38,24c6.36,11.8,12.54,23.81,16.19,36.71s4.67,26.84.66,39.63" transform="translate(-24.76 -27.22)"></path><path class="cls-1 xlwPYQRQ_117" d="M560.06,491c5.49,1.17,9.08,6.31,12,11.11a355.9,355.9,0,0,1,26.18,52.5c2.72,6.79,5.25,13.8,5.69,21.1a38.2,38.2,0,0,1-3.65,18.64h0" transform="translate(-24.76 -27.22)"></path><path class="cls-1 xlwPYQRQ_118" d="M509.45,469.65a127.83,127.83,0,0,1,21.25.55h.08a.87.87,0,0,1-1.23.3.73.73,0,0,1-.18-.17" transform="translate(-24.76 -27.22)"></path><path class="cls-1 xlwPYQRQ_119" d="M510.65,482.87a67.78,67.78,0,0,1,10.63,3.58.25.25,0,0,1,0,.07c0,.26-.61.27-.53,0" transform="translate(-24.76 -27.22)"></path><path class="cls-1 xlwPYQRQ_120" d="M506.27,459.87a10.23,10.23,0,0,1,4.66-.84c.82,0,1.63.08,2.43.14l39.59,3.1c1.27.1,2.54.2,3.81.36h0a21.25,21.25,0,0,1,5.52,1.36,16.66,16.66,0,0,1,3.12,1.73,38.67,38.67,0,0,1,6.26,5.75,242.84,242.84,0,0,1,45.39,70.18c3.5,8.28,6.57,16.85,7.58,25.79a44.79,44.79,0,0,1-2.58,21.85,34,34,0,0,1-2.07,4.25c-.28.49-.56,1.15-.28,1.58a.65.65,0,0,0,.13.16c.2.18.42,0,.55-.16s.2-.62-.14-.5" transform="translate(-24.76 -27.22)"></path><path class="cls-1 xlwPYQRQ_121" d="M444.17,298.72l.63-.13c28-5.78,52.32-6,81.48.73l.41.09c6.11-8.25,14.83-13.3,24.42-16.94a200.86,200.86,0,0,1,21.45-6.36c10.57-2.7,20.78-5.44,31.21-7.23l2.55-.42a131.64,131.64,0,0,1,17.22-1.6V267c.89,53.35-16.27,105.73-16,159.1a322.87,322.87,0,0,0-68.32,13c-11.5,3.51-23.17,7.9-31.77,16.3a5.4,5.4,0,0,1,0-1.88,5.24,5.24,0,0,1,.64-1.8,4.38,4.38,0,0,1,.37-.58" transform="translate(-24.76 -27.22)"></path><path class="cls-1 xlwPYQRQ_122" d="M507.68,454.87c.12-1,.25-2.06.37-3.09q9-75.73,18-151.47" transform="translate(-24.76 -27.22)"></path><path class="cls-1 xlwPYQRQ_123" d="M623.68,267l2.49.26,4,.42A1342.07,1342.07,0,0,0,618,408.28c-.1,3-.19,6-.46,9.05a46.39,46.39,0,0,1-2.26,11.33,640.52,640.52,0,0,0-73.09,13.5A138.51,138.51,0,0,0,525.78,447a77.46,77.46,0,0,0-16.29,8.56c-1.32.9-2.62,1.85-3.88,2.84" transform="translate(-24.76 -27.22)"></path><path class="cls-1 xlwPYQRQ_124" d="M626.24,266.61A14.11,14.11,0,0,1,635,266q-7.31,66.41-13.23,133-.84,9.28-1.62,18.57-.66,7.49-1.28,15A294,294,0,0,0,589.28,436q-5.84.94-11.64,2c-5.75,1-11.49,2.17-17.23,3.3-4.76.93-9.56,1.88-14.31,3-12.53,2.89-24.77,6.83-35.16,14.24-.28-.68-.55-1.36-.82-2" transform="translate(-24.76 -27.22)"></path><path class="cls-1 xlwPYQRQ_125" d="M615.88,372c-2.08,10.58-2.63,21.4-3.18,32.18q-.18,3.7-.38,7.41" transform="translate(-24.76 -27.22)"></path><path class="cls-1 xlwPYQRQ_126" d="M615.56,394.21q-.34,15.65-.68,31.3" transform="translate(-24.76 -27.22)"></path><path class="cls-1 xlwPYQRQ_127" d="M622.44,399a100.69,100.69,0,0,1,22.75,22,104.06,104.06,0,0,1,21.11,58.14c.28,7.11-.18,14.24.37,21.34.47,6.1,1.42,13-1.95,17.91a9.21,9.21,0,0,1-1.05,1.32" transform="translate(-24.76 -27.22)"></path><path class="cls-1 xlwPYQRQ_128" d="M629,437.34c15.1,7.51,25.14,22.82,30.09,39a118.14,118.14,0,0,1,4.22,20.91c.83,7,1.2,14.14,1.44,21.24l0,.67c.08,2.43.14,4.86.21,7.28.1,3.82.19,7.71-.91,11.37-1.27,4.2-4,7.77-6.76,11.2Q640.6,569.9,622.05,589.3l-.59.62" transform="translate(-24.76 -27.22)"></path><path class="cls-1 xlwPYQRQ_129" d="M556.77,462.59a8.06,8.06,0,0,1,2.88-7.15,9.3,9.3,0,0,1,1.28-.87c.38-.22.78-.43,1.18-.62a18.41,18.41,0,0,0,4.49-2.62,17.87,17.87,0,0,0,2.67-3.64,30.5,30.5,0,0,1,8.56-8.68" transform="translate(-24.76 -27.22)"></path><path class="cls-1 xlwPYQRQ_130" d="M589.31,436.12l-5.72,10.71-.19.35c-.16.31-.37.64-.71.71s-.84-.42-1.19-.77c-1.3-1.35-3.72-.82-5,.58s-1.62,3.34-1.95,5.18l-.69,3.88c0,.18-.07.37-.1.55a10.72,10.72,0,0,0-8.25,8.2.67.67,0,0,0,.38-1.1" transform="translate(-24.76 -27.22)"></path><path class="cls-1 xlwPYQRQ_131" d="M574.52,456.87A130.47,130.47,0,0,1,600,470.27a15.06,15.06,0,0,1,3.59,3.06,13.51,13.51,0,0,1,2.1,4.59,44.5,44.5,0,0,1-3.41,33.1" transform="translate(-24.76 -27.22)"></path><path class="cls-1 xlwPYQRQ_132" d="M546.43,445.69A143.68,143.68,0,0,1,562.11,454l.38.23-1.56.39-.59.15" transform="translate(-24.76 -27.22)"></path><path class="cls-1 xlwPYQRQ_133" d="M582.52,446.44c.36.12.72.25,1.07.39a36.73,36.73,0,0,1,19.6,17.7q-.56-7.5-1.12-15c19,19.59,28.32,46.7,33.51,73.52h6.74a197.52,197.52,0,0,0-10.56-57.64c2.92,1.9,6.58-2.32,10-1.53a6.82,6.82,0,0,1,3.13,2.17,78.82,78.82,0,0,1,18.42,31.15l0,.1" transform="translate(-24.76 -27.22)"></path><path class="cls-1 xlwPYQRQ_134" d="M644.48,420.49l.71.56c8.17,6.38,16.52,13.21,20.59,22.7,2.06,4.81,2.9,10,3.69,15.21q2,13.23,3.86,26.5c.79,5.73,1.54,11.62.31,17.24-.07.31-.14.61-.22.92-1.48,5.77-5,10.73-8.67,15.49l-.73,1" transform="translate(-24.76 -27.22)"></path><path class="cls-1 xlwPYQRQ_135" d="M548.8,218a185.88,185.88,0,0,1,3.6,28.21q.3,6.21.2,12.44a186,186,0,0,1-1.82,23l-2.28-1.48" transform="translate(-24.76 -27.22)"></path><path class="cls-1 xlwPYQRQ_136" d="M554.17,258.64c5.84,6.12,14.34,9.2,22.78,9.77,7.62.52,15.24-.85,22.64-2.84l2.35-.65-1.27,1.5" transform="translate(-24.76 -27.22)"></path><path class="cls-1 xlwPYQRQ_137" d="M443.92,288.69A433,433,0,0,1,475.22,187a101.5,101.5,0,0,1,7.42-14.17,41.71,41.71,0,0,1,8.08-9.24c12.73-10.54,31.59-10.19,47.16-4.64s29.15,15.49,43.85,23c1.9,1,3.82,1.91,5.76,2.82,4.33,2,8.74,3.86,13.2,5.58,8.43,3.27,17,6.12,25.6,9l-2.15,1.6" transform="translate(-24.76 -27.22)"></path><path class="cls-1 xlwPYQRQ_138" d="M483.84,173a51.07,51.07,0,0,1,74.37,5.29,121.39,121.39,0,0,1,65.55,26.94l-4.24.09" transform="translate(-24.76 -27.22)"></path><path class="cls-1 xlwPYQRQ_139" d="M603.56,267.66c.22-.67.43-1.34.64-2h0c6.45-20.1,13-40.31,20.62-60q1.15-3,2.34-5.94c8.4-21,18.15-41.3,30.46-60.25,7.4-11.4,17.55-23.25,31.13-23.77,5.88-.23,11.59,1.77,17.14,3.74l6.07,2.16,92,32.7C842.44,168,881,181.7,918.56,197.79c21.51,9.21,42.67,19.21,63.24,30.4,10.88,5.92,21.19,7.34,33.16,10.53,7.49,2,18.65,3.05,23.57,7.8-1.41,4.09-6.67,5-11,5.44A126.86,126.86,0,0,0,976,269c-6.07,3.61-11.89,7.75-18.5,10.23s-14.34,3.1-20.5-.34c-12.82-7.15-12.48-27-24-36.08-4.14-3.29-9.38-4.81-14.53-6-25.94-5.9-52.66-4.76-79.4-3.78-23.31.86-46.64,1.6-69.47-2.53-7.52-1.36-15.78-3.84-19.68-10.36-.1-.15-.18-.3-.27-.46" transform="translate(-24.76 -27.22)"></path><path class="cls-1 xlwPYQRQ_140" d="M733,194.86c-.12,1.22-.25,2.44-.37,3.66q-1.17,10.86-2.7,21.68-1,7.16-2.09,14.3c-.2,1.33-.41,2.66-.61,4l-1.74,11.19-4.77,30.58-18.3,117.43c-2.38,15.24-4.75,30.49-8.21,45.52a324.77,324.77,0,0,1-20,59.62" transform="translate(-24.76 -27.22)"></path><path class="cls-1 xlwPYQRQ_141" d="M606.27,268.15a872.36,872.36,0,0,1,45-110.07c5.94-12.11,12.69-24.66,24.18-31.73,10.65-6.55,23.92-6.86,35.76-2.65a48.8,48.8,0,0,1,19.63,12.88c1.93,2.12,3.77,4.44,6.31,5.77,2.33,1.21,5,1.46,7.62,1.73,40.57,4.22,79.14,19.14,117.15,33.93l55.81,21.71c1,.37,2.09,1,2,2s-2.2.62-1.53-.16" transform="translate(-24.76 -27.22)"></path><path class="cls-1 xlwPYQRQ_142" d="M733.25,198.59c3.41,8.2,11.43,13.44,19.33,17.49a156.38,156.38,0,0,0,66.5,17l.83,0c.57,0,1.3.15,1.4.72s-1.14.42-.73,0" transform="translate(-24.76 -27.22)"></path><path class="cls-1 xlwPYQRQ_143" d="M552.53,246.18l20,9.52c9.42,4.49,19.51,9.09,29.86,7.77l-3.07,1.24" transform="translate(-24.76 -27.22)"></path><path class="cls-6 xlwPYQRQ_144" d="M236.42,155a12.3,12.3,0,0,1,3.22,4.31c-.66-.41-.78.72-.74,1.41a11.81,11.81,0,0,0,.44,2.11,3,3,0,0,0,1.07,1.95,1.5,1.5,0,0,0,1.15.18,1,1,0,0,0,.75-.68,18.57,18.57,0,0,1,1.42,6.16,11.06,11.06,0,0,1-.52,4.48" transform="translate(-24.76 -27.22)"></path><path class="cls-1 xlwPYQRQ_145" d="M510.45,504.41c1.31-1.15,3.1-1.48,4.76-2.06a8.05,8.05,0,0,0,2.3-1.12c2.23-1.67,2.79-4.72,3.18-7.48l1-7.17c0-.24.07-.48.1-.72.25-1.72.49-3.45.74-5.18a17,17,0,0,1,1.65-6.05,10.27,10.27,0,0,1,6.5-4.43,13.49,13.49,0,0,1,7.1.45c3.93,1.36,7.15,4.15,10.05,7.19.67.71,1.32,1.42,2,2.14q5,5.59,9.63,11.51a229.17,229.17,0,0,1,38.82,74.73c2.75,9.11,4.85,19.22,1.83,28-.1.28-.21.57-.32.86-.28.73-.6,1.44-.95,2.15" transform="translate(-24.76 -27.22)"></path><path class="cls-1 xlwPYQRQ_146" d="M861.26,273.59c6.68.92,13.4,1.63,20.15,2.09,3,.2,6.14.43,8.48,2.26s3.1,5.93.67,7.65a7.13,7.13,0,0,1-2.78,1A608.42,608.42,0,0,0,782.9,318.43c-1.63.66-3.38,1.34-5.11,1-3.8-.76-4.91-5.54-5.39-9.39-.79-6.21-2.28-12.91-7.13-16.88-3.06-2.5-7-3.53-10.86-4.5L722,280.45" transform="translate(-24.76 -27.22)"></path><path class="cls-1 xlwPYQRQ_147" d="M727.08,238.5h.15" transform="translate(-24.76 -27.22)"></path><path class="cls-7 xlwPYQRQ_148" d="M643.62,540.19l1.51.37" transform="translate(-24.76 -27.22)"></path><path class="cls-1 xlwPYQRQ_149" d="M236.77,169.64c-.12-.12-.24-.25-.35-.38" transform="translate(-24.76 -27.22)"></path><path class="cls-1 xlwPYQRQ_150" d="M241.8,165.23l-.21,0c-.68.08-1.61.45-1.76,1.05s.51,1.64.45,2.32a2.19,2.19,0,0,1-.9,1.77,1.81,1.81,0,0,1-1.65,0,3.24,3.24,0,0,1-.94-.71" transform="translate(-24.76 -27.22)"></path><path class="cls-1 xlwPYQRQ_151" d="M235.94,168.73s0,0,0,0,.12,0,.1,0" transform="translate(-24.76 -27.22)"></path><path class="cls-2 xlwPYQRQ_152" d="M211.18,141.52L211.18,141.51"></path><path class="cls-1 xlwPYQRQ_153" d="M235.16,162.59a9.72,9.72,0,0,1,2.49,2.66c.74,1.05,1.5,2.3,1.17,3.53a1.4,1.4,0,0,1-.77,1,1.48,1.48,0,0,1-.59.08,2,2,0,0,1-.67-.19h0a1.88,1.88,0,0,1-.77-.76l0,0a.16.16,0,0,1,0-.09" transform="translate(-24.76 -27.22)"></path><path class="cls-6 xlwPYQRQ_154" d="M197.91,180.58a23.29,23.29,0,0,1,4,4.78.33.33,0,0,1,0,.23s0,.06-.06.08" transform="translate(-24.76 -27.22)"></path><style data-made-with="vivus-instant">.xlwPYQRQ_0{stroke-dasharray:408 410;stroke-dashoffset:409;animation:xlwPYQRQ_draw 176ms ease-in-out 0ms forwards;}.xlwPYQRQ_1{stroke-dasharray:178 180;stroke-dashoffset:179;animation:xlwPYQRQ_draw 77ms ease-in-out 176ms forwards;}.xlwPYQRQ_2{stroke-dasharray:182 184;stroke-dashoffset:183;animation:xlwPYQRQ_draw 78ms ease-in-out 253ms forwards;}.xlwPYQRQ_3{stroke-dasharray:15 17;stroke-dashoffset:16;animation:xlwPYQRQ_draw 6ms ease-in-out 332ms forwards;}.xlwPYQRQ_4{stroke-dasharray:30 32;stroke-dashoffset:31;animation:xlwPYQRQ_draw 13ms ease-in-out 339ms forwards;}.xlwPYQRQ_5{stroke-dasharray:124 126;stroke-dashoffset:125;animation:xlwPYQRQ_draw 53ms ease-in-out 352ms forwards;}.xlwPYQRQ_6{stroke-dasharray:8 10;stroke-dashoffset:9;animation:xlwPYQRQ_draw 3ms ease-in-out 406ms forwards;}.xlwPYQRQ_7{stroke-dasharray:9 11;stroke-dashoffset:10;animation:xlwPYQRQ_draw 4ms ease-in-out 410ms forwards;}.xlwPYQRQ_8{stroke-dasharray:7 9;stroke-dashoffset:8;animation:xlwPYQRQ_draw 3ms ease-in-out 415ms forwards;}.xlwPYQRQ_9{stroke-dasharray:39 41;stroke-dashoffset:40;animation:xlwPYQRQ_draw 17ms ease-in-out 418ms forwards;}.xlwPYQRQ_10{stroke-dasharray:47 49;stroke-dashoffset:48;animation:xlwPYQRQ_draw 20ms ease-in-out 435ms forwards;}.xlwPYQRQ_11{stroke-dasharray:1 3;stroke-dashoffset:2;animation:xlwPYQRQ_draw 0ms ease-in-out 456ms forwards;}.xlwPYQRQ_12{stroke-dasharray:0 2;stroke-dashoffset:1;animation:xlwPYQRQ_draw 0ms ease-in-out 457ms forwards;}.xlwPYQRQ_13{stroke-dasharray:3 5;stroke-dashoffset:4;animation:xlwPYQRQ_draw 1ms ease-in-out 457ms forwards;}.xlwPYQRQ_14{stroke-dasharray:14 16;stroke-dashoffset:15;animation:xlwPYQRQ_draw 6ms ease-in-out 459ms forwards;}.xlwPYQRQ_15{stroke-dasharray:64 66;stroke-dashoffset:65;animation:xlwPYQRQ_draw 28ms ease-in-out 465ms forwards;}.xlwPYQRQ_16{stroke-dasharray:13 15;stroke-dashoffset:14;animation:xlwPYQRQ_draw 6ms ease-in-out 493ms forwards;}.xlwPYQRQ_17{stroke-dasharray:245 247;stroke-dashoffset:246;animation:xlwPYQRQ_draw 106ms ease-in-out 500ms forwards;}.xlwPYQRQ_18{stroke-dasharray:70 72;stroke-dashoffset:71;animation:xlwPYQRQ_draw 30ms ease-in-out 606ms forwards;}.xlwPYQRQ_19{stroke-dasharray:324 326;stroke-dashoffset:325;animation:xlwPYQRQ_draw 140ms ease-in-out 636ms forwards;}.xlwPYQRQ_20{stroke-dasharray:112 114;stroke-dashoffset:113;animation:xlwPYQRQ_draw 48ms ease-in-out 776ms forwards;}.xlwPYQRQ_21{stroke-dasharray:174 176;stroke-dashoffset:175;animation:xlwPYQRQ_draw 75ms ease-in-out 825ms forwards;}.xlwPYQRQ_22{stroke-dasharray:165 167;stroke-dashoffset:166;animation:xlwPYQRQ_draw 71ms ease-in-out 901ms forwards;}.xlwPYQRQ_23{stroke-dasharray:158 160;stroke-dashoffset:159;animation:xlwPYQRQ_draw 68ms ease-in-out 972ms forwards;}.xlwPYQRQ_24{stroke-dasharray:38 40;stroke-dashoffset:39;animation:xlwPYQRQ_draw 16ms ease-in-out 1041ms forwards;}.xlwPYQRQ_25{stroke-dasharray:31 33;stroke-dashoffset:32;animation:xlwPYQRQ_draw 13ms ease-in-out 1058ms forwards;}.xlwPYQRQ_26{stroke-dasharray:22 24;stroke-dashoffset:23;animation:xlwPYQRQ_draw 9ms ease-in-out 1072ms forwards;}.xlwPYQRQ_27{stroke-dasharray:0 2;stroke-dashoffset:1;animation:xlwPYQRQ_draw 0ms ease-in-out 1081ms forwards;}.xlwPYQRQ_28{stroke-dasharray:104 106;stroke-dashoffset:105;animation:xlwPYQRQ_draw 45ms ease-in-out 1082ms forwards;}.xlwPYQRQ_29{stroke-dasharray:76 78;stroke-dashoffset:77;animation:xlwPYQRQ_draw 33ms ease-in-out 1127ms forwards;}.xlwPYQRQ_30{stroke-dasharray:83 85;stroke-dashoffset:84;animation:xlwPYQRQ_draw 36ms ease-in-out 1160ms forwards;}.xlwPYQRQ_31{stroke-dasharray:23 25;stroke-dashoffset:24;animation:xlwPYQRQ_draw 10ms ease-in-out 1197ms forwards;}.xlwPYQRQ_32{stroke-dasharray:302 304;stroke-dashoffset:303;animation:xlwPYQRQ_draw 130ms ease-in-out 1207ms forwards;}.xlwPYQRQ_33{stroke-dasharray:59 61;stroke-dashoffset:60;animation:xlwPYQRQ_draw 25ms ease-in-out 1338ms forwards;}.xlwPYQRQ_34{stroke-dasharray:541 543;stroke-dashoffset:542;animation:xlwPYQRQ_draw 233ms ease-in-out 1364ms forwards;}.xlwPYQRQ_35{stroke-dasharray:27 29;stroke-dashoffset:28;animation:xlwPYQRQ_draw 12ms ease-in-out 1597ms forwards;}.xlwPYQRQ_36{stroke-dasharray:71 73;stroke-dashoffset:72;animation:xlwPYQRQ_draw 31ms ease-in-out 1610ms forwards;}.xlwPYQRQ_37{stroke-dasharray:142 144;stroke-dashoffset:143;animation:xlwPYQRQ_draw 61ms ease-in-out 1641ms forwards;}.xlwPYQRQ_38{stroke-dasharray:172 174;stroke-dashoffset:173;animation:xlwPYQRQ_draw 74ms ease-in-out 1702ms forwards;}.xlwPYQRQ_39{stroke-dasharray:329 331;stroke-dashoffset:330;animation:xlwPYQRQ_draw 142ms ease-in-out 1777ms forwards;}.xlwPYQRQ_40{stroke-dasharray:94 96;stroke-dashoffset:95;animation:xlwPYQRQ_draw 40ms ease-in-out 1919ms forwards;}.xlwPYQRQ_41{stroke-dasharray:79 81;stroke-dashoffset:80;animation:xlwPYQRQ_draw 34ms ease-in-out 1960ms forwards;}.xlwPYQRQ_42{stroke-dasharray:92 94;stroke-dashoffset:93;animation:xlwPYQRQ_draw 40ms ease-in-out 1995ms forwards;}.xlwPYQRQ_43{stroke-dasharray:6 8;stroke-dashoffset:7;animation:xlwPYQRQ_draw 3ms ease-in-out 2035ms forwards;}.xlwPYQRQ_44{stroke-dasharray:84 86;stroke-dashoffset:85;animation:xlwPYQRQ_draw 36ms ease-in-out 2038ms forwards;}.xlwPYQRQ_45{stroke-dasharray:74 76;stroke-dashoffset:75;animation:xlwPYQRQ_draw 32ms ease-in-out 2075ms forwards;}.xlwPYQRQ_46{stroke-dasharray:302 304;stroke-dashoffset:303;animation:xlwPYQRQ_draw 130ms ease-in-out 2107ms forwards;}.xlwPYQRQ_47{stroke-dasharray:52 54;stroke-dashoffset:53;animation:xlwPYQRQ_draw 22ms ease-in-out 2238ms forwards;}.xlwPYQRQ_48{stroke-dasharray:81 83;stroke-dashoffset:82;animation:xlwPYQRQ_draw 35ms ease-in-out 2261ms forwards;}.xlwPYQRQ_49{stroke-dasharray:35 37;stroke-dashoffset:36;animation:xlwPYQRQ_draw 15ms ease-in-out 2296ms forwards;}.xlwPYQRQ_50{stroke-dasharray:128 130;stroke-dashoffset:129;animation:xlwPYQRQ_draw 55ms ease-in-out 2311ms forwards;}.xlwPYQRQ_51{stroke-dasharray:39 41;stroke-dashoffset:40;animation:xlwPYQRQ_draw 17ms ease-in-out 2367ms forwards;}.xlwPYQRQ_52{stroke-dasharray:148 150;stroke-dashoffset:149;animation:xlwPYQRQ_draw 64ms ease-in-out 2384ms forwards;}.xlwPYQRQ_53{stroke-dasharray:188 190;stroke-dashoffset:189;animation:xlwPYQRQ_draw 81ms ease-in-out 2449ms forwards;}.xlwPYQRQ_54{stroke-dasharray:28 30;stroke-dashoffset:29;animation:xlwPYQRQ_draw 12ms ease-in-out 2530ms forwards;}.xlwPYQRQ_55{stroke-dasharray:37 39;stroke-dashoffset:38;animation:xlwPYQRQ_draw 16ms ease-in-out 2543ms forwards;}.xlwPYQRQ_56{stroke-dasharray:58 60;stroke-dashoffset:59;animation:xlwPYQRQ_draw 25ms ease-in-out 2559ms forwards;}.xlwPYQRQ_57{stroke-dasharray:104 106;stroke-dashoffset:105;animation:xlwPYQRQ_draw 45ms ease-in-out 2584ms forwards;}.xlwPYQRQ_58{stroke-dasharray:17 19;stroke-dashoffset:18;animation:xlwPYQRQ_draw 7ms ease-in-out 2630ms forwards;}.xlwPYQRQ_59{stroke-dasharray:32 34;stroke-dashoffset:33;animation:xlwPYQRQ_draw 14ms ease-in-out 2638ms forwards;}.xlwPYQRQ_60{stroke-dasharray:135 137;stroke-dashoffset:136;animation:xlwPYQRQ_draw 58ms ease-in-out 2652ms forwards;}.xlwPYQRQ_61{stroke-dasharray:161 163;stroke-dashoffset:162;animation:xlwPYQRQ_draw 69ms ease-in-out 2710ms forwards;}.xlwPYQRQ_62{stroke-dasharray:65 67;stroke-dashoffset:66;animation:xlwPYQRQ_draw 28ms ease-in-out 2780ms forwards;}.xlwPYQRQ_63{stroke-dasharray:200 202;stroke-dashoffset:201;animation:xlwPYQRQ_draw 86ms ease-in-out 2809ms forwards;}.xlwPYQRQ_64{stroke-dasharray:66 68;stroke-dashoffset:67;animation:xlwPYQRQ_draw 28ms ease-in-out 2896ms forwards;}.xlwPYQRQ_65{stroke-dasharray:75 77;stroke-dashoffset:76;animation:xlwPYQRQ_draw 32ms ease-in-out 2924ms forwards;}.xlwPYQRQ_66{stroke-dasharray:72 74;stroke-dashoffset:73;animation:xlwPYQRQ_draw 31ms ease-in-out 2957ms forwards;}.xlwPYQRQ_67{stroke-dasharray:98 100;stroke-dashoffset:99;animation:xlwPYQRQ_draw 42ms ease-in-out 2989ms forwards;}.xlwPYQRQ_68{stroke-dasharray:25 27;stroke-dashoffset:26;animation:xlwPYQRQ_draw 11ms ease-in-out 3031ms forwards;}.xlwPYQRQ_69{stroke-dasharray:67 69;stroke-dashoffset:68;animation:xlwPYQRQ_draw 29ms ease-in-out 3043ms forwards;}.xlwPYQRQ_70{stroke-dasharray:33 35;stroke-dashoffset:34;animation:xlwPYQRQ_draw 14ms ease-in-out 3072ms forwards;}.xlwPYQRQ_71{stroke-dasharray:2 4;stroke-dashoffset:3;animation:xlwPYQRQ_draw 1ms ease-in-out 3087ms forwards;}.xlwPYQRQ_72{stroke-dasharray:33 35;stroke-dashoffset:34;animation:xlwPYQRQ_draw 14ms ease-in-out 3088ms forwards;}.xlwPYQRQ_73{stroke-dasharray:1 3;stroke-dashoffset:2;animation:xlwPYQRQ_draw 0ms ease-in-out 3103ms forwards;}.xlwPYQRQ_74{stroke-dasharray:54 56;stroke-dashoffset:55;animation:xlwPYQRQ_draw 23ms ease-in-out 3103ms forwards;}.xlwPYQRQ_75{stroke-dasharray:187 189;stroke-dashoffset:188;animation:xlwPYQRQ_draw 81ms ease-in-out 3127ms forwards;}.xlwPYQRQ_76{stroke-dasharray:33 35;stroke-dashoffset:34;animation:xlwPYQRQ_draw 14ms ease-in-out 3208ms forwards;}.xlwPYQRQ_77{stroke-dasharray:21 23;stroke-dashoffset:22;animation:xlwPYQRQ_draw 9ms ease-in-out 3223ms forwards;}.xlwPYQRQ_78{stroke-dasharray:7 9;stroke-dashoffset:8;animation:xlwPYQRQ_draw 3ms ease-in-out 3232ms forwards;}.xlwPYQRQ_79{stroke-dasharray:37 39;stroke-dashoffset:38;animation:xlwPYQRQ_draw 16ms ease-in-out 3236ms forwards;}.xlwPYQRQ_80{stroke-dasharray:50 52;stroke-dashoffset:51;animation:xlwPYQRQ_draw 22ms ease-in-out 3252ms forwards;}.xlwPYQRQ_81{stroke-dasharray:3 5;stroke-dashoffset:4;animation:xlwPYQRQ_draw 1ms ease-in-out 3274ms forwards;}.xlwPYQRQ_82{stroke-dasharray:25 27;stroke-dashoffset:26;animation:xlwPYQRQ_draw 11ms ease-in-out 3276ms forwards;}.xlwPYQRQ_83{stroke-dasharray:98 100;stroke-dashoffset:99;animation:xlwPYQRQ_draw 42ms ease-in-out 3287ms forwards;}.xlwPYQRQ_84{stroke-dasharray:295 297;stroke-dashoffset:296;animation:xlwPYQRQ_draw 127ms ease-in-out 3330ms forwards;}.xlwPYQRQ_85{stroke-dasharray:201 203;stroke-dashoffset:202;animation:xlwPYQRQ_draw 87ms ease-in-out 3458ms forwards;}.xlwPYQRQ_86{stroke-dasharray:27 29;stroke-dashoffset:28;animation:xlwPYQRQ_draw 12ms ease-in-out 3545ms forwards;}.xlwPYQRQ_87{stroke-dasharray:88 90;stroke-dashoffset:89;animation:xlwPYQRQ_draw 38ms ease-in-out 3557ms forwards;}.xlwPYQRQ_88{stroke-dasharray:111 113;stroke-dashoffset:112;animation:xlwPYQRQ_draw 48ms ease-in-out 3595ms forwards;}.xlwPYQRQ_89{stroke-dasharray:1 3;stroke-dashoffset:2;animation:xlwPYQRQ_draw 0ms ease-in-out 3644ms forwards;}.xlwPYQRQ_90{stroke-dasharray:21 23;stroke-dashoffset:22;animation:xlwPYQRQ_draw 9ms ease-in-out 3644ms forwards;}.xlwPYQRQ_91{stroke-dasharray:1 3;stroke-dashoffset:2;animation:xlwPYQRQ_draw 0ms ease-in-out 3654ms forwards;}.xlwPYQRQ_92{stroke-dasharray:18 20;stroke-dashoffset:19;animation:xlwPYQRQ_draw 8ms ease-in-out 3655ms forwards;}.xlwPYQRQ_93{stroke-dasharray:13 15;stroke-dashoffset:14;animation:xlwPYQRQ_draw 6ms ease-in-out 3663ms forwards;}.xlwPYQRQ_94{stroke-dasharray:10 12;stroke-dashoffset:11;animation:xlwPYQRQ_draw 4ms ease-in-out 3669ms forwards;}.xlwPYQRQ_95{stroke-dasharray:125 127;stroke-dashoffset:126;animation:xlwPYQRQ_draw 54ms ease-in-out 3674ms forwards;}.xlwPYQRQ_96{stroke-dasharray:145 147;stroke-dashoffset:146;animation:xlwPYQRQ_draw 62ms ease-in-out 3728ms forwards;}.xlwPYQRQ_97{stroke-dasharray:159 161;stroke-dashoffset:160;animation:xlwPYQRQ_draw 69ms ease-in-out 3791ms forwards;}.xlwPYQRQ_98{stroke-dasharray:144 146;stroke-dashoffset:145;animation:xlwPYQRQ_draw 62ms ease-in-out 3860ms forwards;}.xlwPYQRQ_99{stroke-dasharray:148 150;stroke-dashoffset:149;animation:xlwPYQRQ_draw 64ms ease-in-out 3923ms forwards;}.xlwPYQRQ_100{stroke-dasharray:167 169;stroke-dashoffset:168;animation:xlwPYQRQ_draw 72ms ease-in-out 3987ms forwards;}.xlwPYQRQ_101{stroke-dasharray:126 128;stroke-dashoffset:127;animation:xlwPYQRQ_draw 54ms ease-in-out 4059ms forwards;}.xlwPYQRQ_102{stroke-dasharray:125 127;stroke-dashoffset:126;animation:xlwPYQRQ_draw 54ms ease-in-out 4114ms forwards;}.xlwPYQRQ_103{stroke-dasharray:17 19;stroke-dashoffset:18;animation:xlwPYQRQ_draw 7ms ease-in-out 4169ms forwards;}.xlwPYQRQ_104{stroke-dasharray:9 11;stroke-dashoffset:10;animation:xlwPYQRQ_draw 4ms ease-in-out 4176ms forwards;}.xlwPYQRQ_105{stroke-dasharray:76 78;stroke-dashoffset:77;animation:xlwPYQRQ_draw 33ms ease-in-out 4181ms forwards;}.xlwPYQRQ_106{stroke-dasharray:66 68;stroke-dashoffset:67;animation:xlwPYQRQ_draw 28ms ease-in-out 4214ms forwards;}.xlwPYQRQ_107{stroke-dasharray:90 92;stroke-dashoffset:91;animation:xlwPYQRQ_draw 39ms ease-in-out 4243ms forwards;}.xlwPYQRQ_108{stroke-dasharray:114 116;stroke-dashoffset:115;animation:xlwPYQRQ_draw 49ms ease-in-out 4282ms forwards;}.xlwPYQRQ_109{stroke-dasharray:72 74;stroke-dashoffset:73;animation:xlwPYQRQ_draw 31ms ease-in-out 4332ms forwards;}.xlwPYQRQ_110{stroke-dasharray:1 3;stroke-dashoffset:2;animation:xlwPYQRQ_draw 0ms ease-in-out 4363ms forwards;}.xlwPYQRQ_111{stroke-dasharray:3 5;stroke-dashoffset:4;animation:xlwPYQRQ_draw 1ms ease-in-out 4364ms forwards;}.xlwPYQRQ_112{stroke-dasharray:77 79;stroke-dashoffset:78;animation:xlwPYQRQ_draw 33ms ease-in-out 4366ms forwards;}.xlwPYQRQ_113{stroke-dasharray:65 67;stroke-dashoffset:66;animation:xlwPYQRQ_draw 28ms ease-in-out 4399ms forwards;}.xlwPYQRQ_114{stroke-dasharray:70 72;stroke-dashoffset:71;animation:xlwPYQRQ_draw 30ms ease-in-out 4428ms forwards;}.xlwPYQRQ_115{stroke-dasharray:392 394;stroke-dashoffset:393;animation:xlwPYQRQ_draw 169ms ease-in-out 4459ms forwards;}.xlwPYQRQ_116{stroke-dasharray:138 140;stroke-dashoffset:139;animation:xlwPYQRQ_draw 59ms ease-in-out 4628ms forwards;}.xlwPYQRQ_117{stroke-dasharray:117 119;stroke-dashoffset:118;animation:xlwPYQRQ_draw 50ms ease-in-out 4688ms forwards;}.xlwPYQRQ_118{stroke-dasharray:24 26;stroke-dashoffset:25;animation:xlwPYQRQ_draw 10ms ease-in-out 4739ms forwards;}.xlwPYQRQ_119{stroke-dasharray:13 15;stroke-dashoffset:14;animation:xlwPYQRQ_draw 6ms ease-in-out 4750ms forwards;}.xlwPYQRQ_120{stroke-dasharray:210 212;stroke-dashoffset:211;animation:xlwPYQRQ_draw 91ms ease-in-out 4756ms forwards;}.xlwPYQRQ_121{stroke-dasharray:459 461;stroke-dashoffset:460;animation:xlwPYQRQ_draw 198ms ease-in-out 4847ms forwards;}.xlwPYQRQ_122{stroke-dasharray:156 158;stroke-dashoffset:157;animation:xlwPYQRQ_draw 67ms ease-in-out 5045ms forwards;}.xlwPYQRQ_123{stroke-dasharray:284 286;stroke-dashoffset:285;animation:xlwPYQRQ_draw 122ms ease-in-out 5113ms forwards;}.xlwPYQRQ_124{stroke-dasharray:291 293;stroke-dashoffset:292;animation:xlwPYQRQ_draw 125ms ease-in-out 5236ms forwards;}.xlwPYQRQ_125{stroke-dasharray:40 42;stroke-dashoffset:41;animation:xlwPYQRQ_draw 17ms ease-in-out 5362ms forwards;}.xlwPYQRQ_126{stroke-dasharray:32 34;stroke-dashoffset:33;animation:xlwPYQRQ_draw 14ms ease-in-out 5380ms forwards;}.xlwPYQRQ_127{stroke-dasharray:137 139;stroke-dashoffset:138;animation:xlwPYQRQ_draw 59ms ease-in-out 5394ms forwards;}.xlwPYQRQ_128{stroke-dasharray:181 183;stroke-dashoffset:182;animation:xlwPYQRQ_draw 78ms ease-in-out 5453ms forwards;}.xlwPYQRQ_129{stroke-dasharray:33 35;stroke-dashoffset:34;animation:xlwPYQRQ_draw 14ms ease-in-out 5532ms forwards;}.xlwPYQRQ_130{stroke-dasharray:45 47;stroke-dashoffset:46;animation:xlwPYQRQ_draw 19ms ease-in-out 5547ms forwards;}.xlwPYQRQ_131{stroke-dasharray:73 75;stroke-dashoffset:74;animation:xlwPYQRQ_draw 31ms ease-in-out 5566ms forwards;}.xlwPYQRQ_132{stroke-dasharray:21 23;stroke-dashoffset:22;animation:xlwPYQRQ_draw 9ms ease-in-out 5598ms forwards;}.xlwPYQRQ_133{stroke-dasharray:242 244;stroke-dashoffset:243;animation:xlwPYQRQ_draw 104ms ease-in-out 5608ms forwards;}.xlwPYQRQ_134{stroke-dasharray:112 114;stroke-dashoffset:113;animation:xlwPYQRQ_draw 48ms ease-in-out 5713ms forwards;}.xlwPYQRQ_135{stroke-dasharray:67 69;stroke-dashoffset:68;animation:xlwPYQRQ_draw 29ms ease-in-out 5761ms forwards;}.xlwPYQRQ_136{stroke-dasharray:53 55;stroke-dashoffset:54;animation:xlwPYQRQ_draw 23ms ease-in-out 5791ms forwards;}.xlwPYQRQ_137{stroke-dasharray:285 287;stroke-dashoffset:286;animation:xlwPYQRQ_draw 123ms ease-in-out 5814ms forwards;}.xlwPYQRQ_138{stroke-dasharray:160 162;stroke-dashoffset:161;animation:xlwPYQRQ_draw 69ms ease-in-out 5937ms forwards;}.xlwPYQRQ_139{stroke-dasharray:898 900;stroke-dashoffset:899;animation:xlwPYQRQ_draw 387ms ease-in-out 6007ms forwards;}.xlwPYQRQ_140{stroke-dasharray:315 317;stroke-dashoffset:316;animation:xlwPYQRQ_draw 136ms ease-in-out 6395ms forwards;}.xlwPYQRQ_141{stroke-dasharray:425 427;stroke-dashoffset:426;animation:xlwPYQRQ_draw 183ms ease-in-out 6531ms forwards;}.xlwPYQRQ_142{stroke-dasharray:100 102;stroke-dashoffset:101;animation:xlwPYQRQ_draw 43ms ease-in-out 6715ms forwards;}.xlwPYQRQ_143{stroke-dasharray:57 59;stroke-dashoffset:58;animation:xlwPYQRQ_draw 25ms ease-in-out 6758ms forwards;}.xlwPYQRQ_144{stroke-dasharray:25 27;stroke-dashoffset:26;animation:xlwPYQRQ_draw 11ms ease-in-out 6783ms forwards;}.xlwPYQRQ_145{stroke-dasharray:198 200;stroke-dashoffset:199;animation:xlwPYQRQ_draw 85ms ease-in-out 6795ms forwards;}.xlwPYQRQ_146{stroke-dasharray:232 234;stroke-dashoffset:233;animation:xlwPYQRQ_draw 100ms ease-in-out 6880ms forwards;}.xlwPYQRQ_147{stroke-dasharray:1 3;stroke-dashoffset:2;animation:xlwPYQRQ_draw 0ms ease-in-out 6981ms forwards;}.xlwPYQRQ_148{stroke-dasharray:2 4;stroke-dashoffset:3;animation:xlwPYQRQ_draw 1ms ease-in-out 6982ms forwards;}.xlwPYQRQ_149{stroke-dasharray:1 3;stroke-dashoffset:2;animation:xlwPYQRQ_draw 0ms ease-in-out 6983ms forwards;}.xlwPYQRQ_150{stroke-dasharray:10 12;stroke-dashoffset:11;animation:xlwPYQRQ_draw 4ms ease-in-out 6984ms forwards;}.xlwPYQRQ_151{stroke-dasharray:1 3;stroke-dashoffset:2;animation:xlwPYQRQ_draw 0ms ease-in-out 6989ms forwards;}.xlwPYQRQ_152{stroke-dasharray:1 3;stroke-dashoffset:2;animation:xlwPYQRQ_draw 0ms ease-in-out 6990ms forwards;}.xlwPYQRQ_153{stroke-dasharray:12 14;stroke-dashoffset:13;animation:xlwPYQRQ_draw 5ms ease-in-out 6990ms forwards;}.xlwPYQRQ_154{stroke-dasharray:7 9;stroke-dashoffset:8;animation:xlwPYQRQ_draw 3ms ease-in-out 6996ms forwards;}@keyframes xlwPYQRQ_draw{100%{stroke-dashoffset:0;}}@keyframes xlwPYQRQ_fade{0%{stroke-opacity:1;}96.42857142857143%{stroke-opacity:1;}100%{stroke-opacity:0;}}</style></svg>